<?xml version="1.0" encoding="utf-8"?>
<!-- Generator: Adobe Illustrator 19.1.0, SVG Export Plug-In . SVG Version: 6.00 Build 0)  -->
<svg version="1.1" id="Layer_1" xmlns="http://www.w3.org/2000/svg" xmlns:xlink="http://www.w3.org/1999/xlink" x="0px" y="0px"
	 viewBox="0 0 1700.8 850.4" style="enable-background:new 0 0 1700.8 850.4;" xml:space="preserve">
<style type="text/css">
	.st0{fill:none;stroke:#1D1D1B;stroke-width:0.5;stroke-miterlimit:10;}
	.st1{fill:#1D1D1B;}
</style>
<polygon class="st0" points="64.9,606.9 40,606.9 40,748.7 64.9,748.7 64.9,762.8 107.4,762.8 107.4,748.7 164.1,748.7 164.1,762.8 
	206.6,762.8 206.6,748.7 231.6,748.7 231.6,606.9 206.6,606.9 206.6,592.8 164.1,592.8 164.1,606.9 107.4,606.9 107.4,592.8 
	64.9,592.8 "/>
<polygon class="st0" points="281.6,606.9 256.7,606.9 256.7,748.7 281.6,748.7 281.6,762.8 324.1,762.8 324.1,748.7 380.8,748.7 
	380.8,762.8 423.4,762.8 423.4,748.7 448.3,748.7 448.3,606.9 423.4,606.9 423.4,592.8 380.8,592.8 380.8,606.9 324.1,606.9 
	324.1,592.8 281.6,592.8 "/>
<polygon class="st0" points="497.9,606.9 473,606.9 473,748.7 497.9,748.7 497.9,762.8 540.4,762.8 540.4,748.7 597.1,748.7 
	597.1,762.8 639.6,762.8 639.6,748.7 664.6,748.7 664.6,606.9 639.6,606.9 639.6,592.8 597.1,592.8 597.1,606.9 540.4,606.9 
	540.4,592.8 497.9,592.8 "/>
<circle class="st0" cx="788" cy="643.2" r="23.1"/>
<circle class="st0" cx="718.9" cy="643.2" r="23.1"/>
<circle class="st0" cx="811.1" cy="620.1" r="4.4"/>
<circle class="st0" cx="695.8" cy="666.3" r="4.4"/>
<circle class="st0" cx="733.6" cy="725.6" r="4.3"/>
<circle class="st0" cx="753.5" cy="725.6" r="4.3"/>
<circle class="st0" cx="773.3" cy="725.6" r="4.3"/>
<path class="st0" d="M742.1,613v11.3c0,1.6,1.3,2.8,2.8,2.8h17c1.6,0,2.8-1.3,2.8-2.8c0,0,0-11.3,0-11.3h49.9c1.9,0,3.5,1.6,3.5,3.5
	V739c0,1.9-1.6,3.5-3.5,3.5H692.2c-1.9,0-3.5-1.6-3.5-3.5V616.6c0-1.9,1.6-3.5,3.5-3.5H742.1z"/>
<path class="st0" d="M688.7,673.4h129.5H688.7z"/>
<path class="st0" d="M705.1,83.2h-82.2c-4.7,0-8.5-3.8-8.5-8.5V35c0-4.7,3.8-8.5,8.5-8.5h82.2c4.7,0,8.5,3.8,8.5,8.5v39.7
	C713.6,79.4,709.8,83.2,705.1,83.2z"/>
<circle class="st0" cx="664" cy="44.9" r="4.3"/>
<circle class="st0" cx="644.1" cy="44.9" r="4.3"/>
<circle class="st0" cx="683.8" cy="44.9" r="4.3"/>
<path class="st0" d="M705.1,145.7h-82.2c-4.7,0-8.5-3.8-8.5-8.5V97.5c0-4.7,3.8-8.5,8.5-8.5h82.2c4.7,0,8.5,3.8,8.5,8.5v39.7
	C713.6,141.9,709.8,145.7,705.1,145.7z"/>
<circle class="st0" cx="664" cy="107.4" r="4.3"/>
<circle class="st0" cx="644.1" cy="107.4" r="4.3"/>
<circle class="st0" cx="683.8" cy="107.4" r="4.3"/>
<path class="st0" d="M705.1,207.9h-82.2c-4.7,0-8.5-3.8-8.5-8.5v-39.7c0-4.7,3.8-8.5,8.5-8.5h82.2c4.7,0,8.5,3.8,8.5,8.5v39.7
	C713.6,204.1,709.8,207.9,705.1,207.9z"/>
<circle class="st0" cx="664" cy="169.6" r="4.3"/>
<circle class="st0" cx="644.1" cy="169.6" r="4.3"/>
<circle class="st0" cx="683.8" cy="169.6" r="4.3"/>
<path class="st0" d="M705.1,270.4h-82.2c-4.7,0-8.5-3.8-8.5-8.5v-39.7c0-4.7,3.8-8.5,8.5-8.5h82.2c4.7,0,8.5,3.8,8.5,8.5v39.7
	C713.6,266.6,709.8,270.4,705.1,270.4z"/>
<circle class="st0" cx="664" cy="232.1" r="4.3"/>
<circle class="st0" cx="644.1" cy="232.1" r="4.3"/>
<circle class="st0" cx="683.8" cy="232.1" r="4.3"/>
<path class="st0" d="M705.1,332.8h-82.2c-4.7,0-8.5-3.8-8.5-8.5v-39.7c0-4.7,3.8-8.5,8.5-8.5h82.2c4.7,0,8.5,3.8,8.5,8.5v39.7
	C713.6,328.9,709.8,332.8,705.1,332.8z"/>
<circle class="st0" cx="664" cy="294.4" r="4.3"/>
<circle class="st0" cx="644.1" cy="294.4" r="4.3"/>
<circle class="st0" cx="683.8" cy="294.4" r="4.3"/>
<path class="st0" d="M705.1,395.3h-82.2c-4.7,0-8.5-3.8-8.5-8.5v-39.7c0-4.7,3.8-8.5,8.5-8.5h82.2c4.7,0,8.5,3.8,8.5,8.5v39.7
	C713.6,391.5,709.8,395.3,705.1,395.3z"/>
<circle class="st0" cx="664" cy="356.9" r="4.3"/>
<circle class="st0" cx="644.1" cy="356.9" r="4.3"/>
<circle class="st0" cx="683.8" cy="356.9" r="4.3"/>
<path class="st0" d="M705.1,457.5h-82.2c-4.7,0-8.5-3.8-8.5-8.5v-39.7c0-4.7,3.8-8.5,8.5-8.5h82.2c4.7,0,8.5,3.8,8.5,8.5V449
	C713.6,453.6,709.8,457.5,705.1,457.5z"/>
<circle class="st0" cx="664" cy="419.1" r="4.3"/>
<circle class="st0" cx="644.1" cy="419.1" r="4.3"/>
<circle class="st0" cx="683.8" cy="419.1" r="4.3"/>
<path class="st0" d="M705.1,520h-82.2c-4.7,0-8.5-3.8-8.5-8.5v-39.7c0-4.7,3.8-8.5,8.5-8.5h82.2c4.7,0,8.5,3.8,8.5,8.5v39.7
	C713.6,516.2,709.8,520,705.1,520z"/>
<circle class="st0" cx="664" cy="481.6" r="4.3"/>
<circle class="st0" cx="644.1" cy="481.6" r="4.3"/>
<circle class="st0" cx="683.8" cy="481.6" r="4.3"/>
<path class="st0" d="M810.1,83.2h-82.2c-4.7,0-8.5-3.8-8.5-8.5V35c0-4.7,3.8-8.5,8.5-8.5h82.2c4.7,0,8.5,3.8,8.5,8.5v39.7
	C818.6,79.4,814.8,83.2,810.1,83.2z"/>
<circle class="st0" cx="769" cy="44.9" r="4.3"/>
<circle class="st0" cx="749.2" cy="44.9" r="4.3"/>
<circle class="st0" cx="788.9" cy="44.9" r="4.3"/>
<path class="st0" d="M810.1,145.7h-82.2c-4.7,0-8.5-3.8-8.5-8.5V97.5c0-4.7,3.8-8.5,8.5-8.5h82.2c4.7,0,8.5,3.8,8.5,8.5v39.7
	C818.6,141.9,814.8,145.7,810.1,145.7z"/>
<circle class="st0" cx="769" cy="107.4" r="4.3"/>
<circle class="st0" cx="749.2" cy="107.4" r="4.3"/>
<circle class="st0" cx="788.9" cy="107.4" r="4.3"/>
<path class="st0" d="M810.1,207.9h-82.2c-4.7,0-8.5-3.8-8.5-8.5v-39.7c0-4.7,3.8-8.5,8.5-8.5h82.2c4.7,0,8.5,3.8,8.5,8.5v39.7
	C818.6,204.1,814.8,207.9,810.1,207.9z"/>
<circle class="st0" cx="769" cy="169.6" r="4.3"/>
<circle class="st0" cx="749.2" cy="169.6" r="4.3"/>
<circle class="st0" cx="788.9" cy="169.6" r="4.3"/>
<path class="st0" d="M800.2,204.5h-62.4c-1.6,0-2.8-1.3-2.8-2.8v-11.4c0-1.6,1.3-2.8,2.8-2.8h62.4c1.6,0,2.8,1.3,2.8,2.8v11.4
	C803,203.2,801.8,204.5,800.2,204.5z"/>
<path class="st0" d="M810.1,270.4h-82.2c-4.7,0-8.5-3.8-8.5-8.5v-39.7c0-4.7,3.8-8.5,8.5-8.5h82.2c4.7,0,8.5,3.8,8.5,8.5v39.7
	C818.6,266.6,814.8,270.4,810.1,270.4z"/>
<circle class="st0" cx="769" cy="232.1" r="4.3"/>
<circle class="st0" cx="749.2" cy="232.1" r="4.3"/>
<circle class="st0" cx="788.9" cy="232.1" r="4.3"/>
<circle class="st0" cx="769" cy="258.5" r="4.3"/>
<circle class="st0" cx="790.6" cy="258.5" r="4.3"/>
<circle class="st0" cx="747.4" cy="258.5" r="4.3"/>
<circle class="st0" cx="861.7" cy="511.5" r="4.3"/>
<circle class="st0" cx="881.6" cy="511.5" r="4.3"/>
<circle class="st0" cx="901.4" cy="511.5" r="4.3"/>
<circle class="st0" cx="810.7" cy="541.1" r="4.3"/>
<circle class="st0" cx="952.4" cy="541.1" r="4.3"/>
<circle class="st0" cx="861.7" cy="625.4" r="4.3"/>
<circle class="st0" cx="881.6" cy="625.4" r="4.3"/>
<circle class="st0" cx="901.4" cy="625.4" r="4.3"/>
<path class="st0" d="M924.1,555.2h-85c-7.8,0-14.2-6.3-14.2-14.2v0c0-7.8,6.3-14.2,14.2-14.2h85c7.8,0,14.2,6.3,14.2,14.2v0
	C938.3,548.9,931.9,555.2,924.1,555.2z"/>
<circle class="st0" cx="746.3" cy="310.4" r="4.3"/>
<circle class="st0" cx="1016.8" cy="310.4" r="4.3"/>
<g>
	<path class="st0" d="M839,512.9v-73.7h-22.6l-92-92v-65.1h43.7c0,62.6,50.8,113.4,113.4,113.4s113.4-50.8,113.4-113.4h43.7v65.1
		l-92,92h-22.6l0,73.7h14.2c15.6,0,28.3,12.8,28.3,28.3v0c0,15.6-12.8,28.3-28.3,28.3l-14.2,0v73.7h-85l0-73.7h-14.2
		c-15.6,0-28.3-12.8-28.3-28.3v0c0-15.6,12.8-28.3,28.3-28.3L839,512.9"/>
	<circle class="st0" cx="827.8" cy="411.1" r="4.3"/>
	<circle class="st0" cx="935.4" cy="410.8" r="4.3"/>
</g>
<path class="st0" d="M1106,514.3V588h22.6l92,92v65.1h-43.7c0-62.6-50.8-113.4-113.4-113.4c-62.6,0-113.4,50.8-113.4,113.4h-43.7
	v-65.1l92-92h22.6c0,0,0-73.7,0-73.7h-14.2c-15.6,0-28.3-12.8-28.3-28.3v0c0-15.6,12.8-28.3,28.3-28.3c0,0,14.2,0,14.2,0v-73.7h85
	l0,73.7h14.2c15.6,0,28.3,12.8,28.3,28.3v0c0,15.6-12.8,28.3-28.3,28.3H1106"/>
<circle class="st0" cx="1083.3" cy="515.7" r="4.3"/>
<circle class="st0" cx="1063.5" cy="515.7" r="4.3"/>
<circle class="st0" cx="1043.6" cy="515.7" r="4.3"/>
<circle class="st0" cx="1134.3" cy="486.1" r="4.3"/>
<circle class="st0" cx="992.6" cy="486.1" r="4.3"/>
<circle class="st0" cx="1083.3" cy="401.8" r="4.3"/>
<circle class="st0" cx="1063.5" cy="401.8" r="4.3"/>
<circle class="st0" cx="1043.6" cy="401.8" r="4.3"/>
<path class="st0" d="M1021,472h85c7.8,0,14.2,6.3,14.2,14.2v0c0,7.8-6.3,14.2-14.2,14.2h-85c-7.8,0-14.2-6.3-14.2-14.2v0
	C1006.8,478.3,1013.1,472,1021,472z"/>
<circle class="st0" cx="1198.7" cy="716.8" r="4.3"/>
<circle class="st0" cx="928.2" cy="716.8" r="4.3"/>
<circle class="st0" cx="1117.3" cy="616.1" r="4.3"/>
<circle class="st0" cx="1009.7" cy="616.4" r="4.3"/>
<path class="st1" d="M349.6,298.3c-0.5,0.1-1.2,0.1-1.9,0.1c-1.6,0-2.8-0.4-3.6-1.2c-0.8-0.7-1.2-1.8-1.2-3.1c0-1.3,0.4-2.2,1.1-2.9
	c0.7-0.7,1.8-1,3.3-1c0.8,0,1.6,0.1,2.2,0.2V298.3z M348.6,291.2c-0.3-0.1-0.7-0.1-1.2-0.1c-2.2,0-3.3,1.2-3.3,3.1
	c0,2.2,1.2,3.4,3.4,3.4c0.4,0,0.8,0,1.1-0.1V291.2z"/>
<path class="st1" d="M337,295.7c0-0.1,0-0.3,0-0.5c0-1.1,0.5-2.7,2.4-2.7c1.7,0,2.7,1.4,2.7,3.1s-1.1,2.9-2.9,2.9
	c-0.9,0-1.6-0.2-1.9-0.4l0.2-0.8c0.4,0.2,0.9,0.3,1.6,0.3c1.1,0,2-0.6,2-2H337z M341,294.9c-0.1-0.7-0.6-1.7-1.6-1.7
	c-1.2,0-1.5,1-1.5,1.7H341z"/>
<path class="st1" d="M336,298.1c-0.4,0.2-1,0.4-1.6,0.4c-1.4,0-2.2-0.7-2.2-1.7c0-0.9,0.5-1.4,1.5-1.8c0.8-0.3,1.1-0.5,1.1-1
	c0-0.4-0.3-0.8-1-0.8c-0.5,0-1,0.2-1.2,0.3l-0.3-0.8c0.3-0.2,0.8-0.4,1.4-0.4c1.2,0,2,0.8,2,1.7c0,0.7-0.5,1.3-1.5,1.6
	c-0.8,0.3-1.1,0.6-1.1,1.1c0,0.5,0.4,0.9,1.1,0.9c0.5,0,1.1-0.2,1.4-0.4L336,298.1z"/>
<path class="st1" d="M330.3,290.3c0.4,0,0.7,0.3,0.7,0.7c0,0.4-0.3,0.6-0.6,0.6c-0.4,0-0.7-0.3-0.7-0.6
	C329.7,290.6,329.9,290.3,330.3,290.3z M329.8,298.4v-5.8h1.1v5.8H329.8z"/>
<path class="st1" d="M324,292.6l0,0.9h0c0.3-0.5,0.8-1,1.8-1c1.3,0,2.6,1.1,2.6,3.1c0,1.6-1,2.8-2.5,2.8c-0.9,0-1.5-0.4-1.8-1h0v0.6
	c0,1.5,0.8,2,1.9,2c0.7,0,1.3-0.2,1.7-0.5l0.3,0.8c-0.5,0.3-1.2,0.5-1.9,0.5c-0.7,0-1.5-0.2-2.1-0.7c-0.6-0.5-0.8-1.3-0.8-2.7v-3.4
	c0-0.7,0-1.2,0-1.6H324z M324.1,295.9c0,0.2,0,0.4,0.1,0.6c0.2,0.7,0.8,1.1,1.5,1.1c1.1,0,1.7-0.9,1.7-2.1c0-1.3-0.7-2.2-1.7-2.2
	c-0.8,0-1.3,0.5-1.5,1.1c0,0.1-0.1,0.3-0.1,0.5V295.9z"/>
<path class="st1" d="M321.4,298.4h-1.1v-3.5c0-0.2,0-0.4-0.1-0.5c-0.2-0.6-0.7-1.1-1.4-1.1c-1,0-1.3,0.8-1.3,1.7v3.3h-1.1v-3.5
	c0-2,1.2-2.5,2.1-2.5c1,0,1.6,0.5,1.9,1.1h0l0.1-1h0.9c0,0.5,0,1,0,1.6V298.4z"/>
<path class="st1" d="M310.1,295.7c0-0.1,0-0.3,0-0.5c0-1.1,0.5-2.7,2.4-2.7c1.7,0,2.7,1.4,2.7,3.1s-1.1,2.9-2.9,2.9
	c-0.9,0-1.6-0.2-1.9-0.4l0.2-0.8c0.4,0.2,0.9,0.3,1.6,0.3c1.1,0,2-0.6,2-2H310.1z M314.2,294.9c-0.1-0.7-0.6-1.7-1.6-1.7
	c-1.2,0-1.5,1-1.5,1.7H314.2z"/>
<path class="st1" d="M304.8,289.9v3.5h0c0.3-0.5,0.9-0.9,1.8-0.9c1.4,0,2.6,1.2,2.6,3.1c0,1.8-1.1,3-2.5,3c-0.9,0-1.7-0.5-2-1.1h0
	l0,1h-0.9c0-0.4,0-1,0-1.5v-7H304.8z M304.8,295.9c0,0.2,0,0.3,0,0.5c0.2,0.8,0.8,1.3,1.5,1.3c1.1,0,1.7-1,1.7-2.1
	c0-1.3-0.6-2.2-1.7-2.2c-0.8,0-1.4,0.6-1.5,1.2c0,0.1,0,0.3,0,0.4V295.9z"/>
<path class="st1" d="M295.3,298.4c0.1-0.4,0.1-0.9,0.1-1.4v-2.2c0-1.2,0.4-2.4,2.2-2.4c0.7,0,1.4,0.2,1.9,0.5l-0.2,0.7
	c-0.4-0.3-1-0.4-1.5-0.4c-1.2,0-1.3,0.9-1.3,1.3v0.1c2.2,0,3.5,0.8,3.5,2.2c0,0.8-0.6,1.7-1.8,1.7c-0.8,0-1.5-0.4-1.8-0.9h0
	l-0.1,0.7H295.3z M296.4,296.4c0,0.1,0,0.2,0.1,0.3c0.2,0.5,0.6,1,1.4,1c0.5,0,1-0.3,1-1c0-1.1-1.3-1.3-2.5-1.3V296.4z"/>
<path class="st1" d="M293.7,298.4h-1.1v-3.5c0-0.2,0-0.4-0.1-0.5c-0.2-0.6-0.7-1.1-1.4-1.1c-1,0-1.3,0.8-1.3,1.7v3.3h-1.1v-3.5
	c0-2,1.2-2.5,2.1-2.5c1,0,1.6,0.5,1.9,1.1h0l0.1-1h0.9c0,0.5,0,1,0,1.6V298.4z"/>
<path class="st1" d="M283,289.9v3.5h0c0.3-0.5,0.9-0.9,1.8-0.9c1.4,0,2.6,1.2,2.6,3.1c0,1.8-1.1,3-2.5,3c-0.9,0-1.7-0.5-2-1.1h0l0,1
	h-0.9c0-0.4,0-1,0-1.5v-7H283z M283,295.9c0,0.2,0,0.3,0,0.5c0.2,0.8,0.8,1.3,1.5,1.3c1.1,0,1.7-1,1.7-2.1c0-1.3-0.6-2.2-1.7-2.2
	c-0.8,0-1.4,0.6-1.5,1.2c0,0.1,0,0.3,0,0.4V295.9z"/>
<path class="st1" d="M277.6,298.3c-0.3,0-0.9,0.1-1.6,0.1c-1.3,0-2.2-0.2-2.8-0.8c-0.4-0.4-0.7-0.9-0.7-1.6c0-1.2,0.9-1.8,1.7-2v0
	c-0.9-0.3-1.4-1-1.4-1.8c0-0.6,0.3-1.1,0.7-1.4c0.5-0.4,1.2-0.6,2.2-0.6c0.7,0,1.5,0.1,1.9,0.2V298.3z M276.6,291.1
	c-0.2,0-0.4-0.1-0.9-0.1c-1.1,0-1.8,0.4-1.8,1.3c0,0.8,0.6,1.4,1.8,1.4h0.9V291.1z M276.6,294.5h-0.9c-1.1,0-2.1,0.5-2.1,1.6
	c0,1.2,1,1.6,2.1,1.6c0.4,0,0.7,0,0.9,0V294.5z"/>
<path class="st1" d="M266.3,292.6h1.1v3.6c0,0.2,0,0.4,0.1,0.5c0.2,0.5,0.7,1,1.4,1c1,0,1.3-0.7,1.3-1.8v-3.2h1.1v3.4
	c0,2-1.1,2.5-2,2.5c-1,0-1.6-0.6-1.9-1.1h0l-0.1,0.9h-0.9c0-0.5,0-1,0-1.6V292.6z"/>
<path class="st1" d="M264,290.3c0.4,0,0.7,0.3,0.7,0.7c0,0.4-0.3,0.6-0.6,0.6c-0.4,0-0.7-0.3-0.7-0.6
	C263.4,290.6,263.6,290.3,264,290.3z M263.5,298.4v-5.8h1.1v5.8H263.5z"/>
<path class="st1" d="M261.8,298.4h-1.1v-8.5h1.1V298.4z"/>
<path class="st1" d="M258.7,291.2v1.4h0.9v0.8h-0.9v3.2c0,0.7-0.1,1.2-0.4,1.5c-0.3,0.3-0.6,0.4-1.1,0.4c-0.4,0-0.7-0.1-0.9-0.1
	l0-0.8c0.1,0,0.3,0.1,0.6,0.1c0.6,0,0.8-0.4,0.8-1.1v-3.1h-1.5v-0.8h1.5v-1.7L258.7,291.2z"/>
<path class="st1" d="M335.7,304.7c0.4,0,0.7,0.3,0.7,0.7c0,0.4-0.3,0.6-0.6,0.6c-0.4,0-0.7-0.3-0.7-0.6
	C335,305,335.3,304.7,335.7,304.7z M335.1,312.8V307h1.1v5.8H335.1z"/>
<path class="st1" d="M333.4,312.8h-1.1v-3.5c0-0.2,0-0.4-0.1-0.5c-0.2-0.6-0.7-1.1-1.4-1.1c-1,0-1.3,0.8-1.3,1.7v3.3h-1.1v-3.5
	c0-2,1.2-2.5,2.1-2.5c1,0,1.6,0.5,1.9,1.1h0l0.1-1h0.9c0,0.5,0,1,0,1.6V312.8z"/>
<path class="st1" d="M318.7,311.7c0.4,0.2,1.1,0.3,1.7,0.3c2,0,3.1-1.3,3.1-3.2c0-2.1-1.3-3.3-3.2-3.3c-0.7,0-1.2,0.1-1.6,0.3
	l-0.3-0.9c0.3-0.1,0.9-0.4,1.9-0.4c2.5,0,4.2,1.7,4.2,4.2c0,2.7-1.7,4.1-4,4.1c-1,0-1.8-0.2-2.1-0.4L318.7,311.7z"/>
<path class="st1" d="M313.1,312.8c0.1-0.4,0.1-0.9,0.1-1.4v-2.2c0-1.2,0.4-2.4,2.2-2.4c0.7,0,1.4,0.2,1.9,0.5l-0.2,0.7
	c-0.4-0.3-1-0.4-1.5-0.4c-1.2,0-1.3,0.9-1.3,1.3v0.1c2.2,0,3.5,0.8,3.5,2.2c0,0.8-0.6,1.7-1.8,1.7c-0.8,0-1.5-0.4-1.8-0.9h0
	l-0.1,0.7H313.1z M314.3,310.8c0,0.1,0,0.2,0.1,0.3c0.2,0.5,0.6,1,1.4,1c0.5,0,1-0.3,1-1c0-1.1-1.3-1.3-2.5-1.3V310.8z"/>
<path class="st1" d="M311.5,312.8h-1v-3.5c0-0.2,0-0.4-0.1-0.5c-0.2-0.5-0.6-1.1-1.3-1.1c-0.8,0-1.2,0.7-1.2,1.6v3.5h-1v-3.6
	c0-0.2,0-0.4-0.1-0.5c-0.2-0.5-0.6-1-1.2-1c-0.9,0-1.3,0.7-1.3,1.8v3.3h-1v-3.4c0-2,1.1-2.5,1.9-2.5c0.6,0,0.9,0.1,1.3,0.4
	c0.2,0.2,0.5,0.4,0.6,0.8h0c0.3-0.7,0.9-1.2,1.6-1.2c1,0,1.5,0.5,1.8,1.1h0l0-0.9h0.9c0,0.5,0,1,0,1.6V312.8z"/>
<path class="st1" d="M300.7,312.8l0-1h0c-0.4,0.8-1.1,1.1-1.9,1.1c-1.3,0-2.6-1-2.6-3.1c0-1.8,1-3,2.4-3c0.9,0,1.6,0.4,2,1.1h0v-3.6
	h1v7c0,0.5,0,1.1,0,1.5H300.7z M300.5,309.4c0-0.2,0-0.3-0.1-0.4c-0.2-0.8-0.9-1.3-1.6-1.3c-1.1,0-1.7,1-1.7,2.2
	c0,1.3,0.7,2.2,1.8,2.2c0.8,0,1.4-0.5,1.6-1.2c0-0.1,0-0.3,0-0.4V309.4z"/>
<path class="st1" d="M294.7,312.8h-1v-3.1c0-0.2,0-0.3,0-0.5c-0.1-0.8-0.7-1.4-1.4-1.4c-0.1,0-0.3,0-0.4,0v-1c0.1,0,0.2,0,0.3,0
	c0.7,0,1.3,0.5,1.6,1.3h0l0-1.1h0.9c0,0.5,0,1.1,0,1.8V312.8z"/>
<path class="st1" d="M290.2,304.7c0.4,0,0.7,0.3,0.7,0.7c0,0.4-0.3,0.6-0.6,0.6c-0.4,0-0.7-0.3-0.7-0.6
	C289.5,305,289.8,304.7,290.2,304.7z M289.7,312.8V307h1.1v5.8H289.7z"/>
<path class="st1" d="M284,304.3v3.5h0c0.3-0.5,0.9-0.9,1.8-0.9c1.4,0,2.6,1.2,2.6,3.1c0,1.8-1.1,3-2.5,3c-0.9,0-1.7-0.5-2-1.1h0l0,1
	h-0.9c0-0.4,0-1,0-1.5v-7H284z M284,310.3c0,0.2,0,0.3,0,0.5c0.2,0.8,0.8,1.3,1.5,1.3c1.1,0,1.7-1,1.7-2.1c0-1.3-0.6-2.2-1.7-2.2
	c-0.8,0-1.4,0.6-1.5,1.2c0,0.1,0,0.3,0,0.4V310.3z"/>
<path class="st1" d="M277.1,307l0,0.9h0c0.3-0.5,0.8-1,1.8-1c1.3,0,2.6,1.1,2.6,3.1c0,1.6-1,2.8-2.5,2.8c-0.9,0-1.5-0.4-1.8-1h0v0.6
	c0,1.5,0.8,2,1.9,2c0.7,0,1.3-0.2,1.7-0.5l0.3,0.8c-0.5,0.3-1.2,0.5-1.9,0.5c-0.7,0-1.5-0.2-2.1-0.7c-0.6-0.5-0.8-1.3-0.8-2.7v-3.4
	c0-0.7,0-1.2,0-1.6H277.1z M277.2,310.3c0,0.2,0,0.4,0.1,0.6c0.2,0.7,0.8,1.1,1.5,1.1c1.1,0,1.7-0.9,1.7-2.1c0-1.3-0.7-2.2-1.7-2.2
	c-0.8,0-1.3,0.5-1.5,1.1c0,0.1-0.1,0.3-0.1,0.5V310.3z"/>
<path class="st1" d="M269.8,310.1c0-0.1,0-0.3,0-0.5c0-1.1,0.5-2.7,2.4-2.7c1.7,0,2.7,1.4,2.7,3.1s-1.1,2.9-2.9,2.9
	c-0.9,0-1.6-0.2-1.9-0.4l0.2-0.8c0.4,0.2,0.9,0.3,1.6,0.3c1.1,0,2-0.6,2-2H269.8z M273.8,309.3c-0.1-0.7-0.6-1.7-1.6-1.7
	c-1.2,0-1.5,1-1.5,1.7H273.8z"/>
<path class="st0" d="M186.1,556.1L49.3,419.3c-5.3-5.3-8.3-12.5-8.3-20V205.8c0-7.5,3-14.7,8.3-20L186.1,49c5.3-5.3,12.5-8.3,20-8.3
	h193.5c7.5,0,14.7,3,20,8.3l136.8,136.8c5.3,5.3,8.3,12.5,8.3,20v193.5c0,7.5-3,14.7-8.3,20L419.7,556.1c-5.3,5.3-12.5,8.3-20,8.3
	H206.2C198.6,564.5,191.4,561.5,186.1,556.1z"/>
<rect x="55.2" y="231.7" class="st0" width="14.2" height="42.5"/>
<rect x="55.2" y="330.9" class="st0" width="14.2" height="42.5"/>
<rect x="536.4" y="231.7" class="st0" width="14.2" height="42.5"/>
<rect x="536.4" y="330.9" class="st0" width="14.2" height="42.5"/>
<rect x="232" y="536.1" class="st0" width="42.5" height="14.2"/>
<rect x="331.2" y="536.1" class="st0" width="42.5" height="14.2"/>
<rect x="232" y="54.9" class="st0" width="42.5" height="14.2"/>
<rect x="331.2" y="54.9" class="st0" width="42.5" height="14.2"/>
<rect x="90.6" y="416.4" transform="matrix(0.7071 -0.7071 0.7071 0.7071 -280.8516 197.2376)" class="st0" width="14.2" height="42.5"/>
<rect x="160.7" y="486.5" transform="matrix(0.7071 -0.7071 0.7071 0.7071 -309.9103 267.3915)" class="st0" width="14.2" height="42.5"/>
<rect x="430.9" y="76.1" transform="matrix(0.7071 -0.7071 0.7071 0.7071 59.4467 338.1938)" class="st0" width="14.2" height="42.5"/>
<rect x="501" y="146.2" transform="matrix(0.7071 -0.7071 0.7071 0.7071 30.388 408.3477)" class="st0" width="14.2" height="42.5"/>
<rect x="430.9" y="486.5" transform="matrix(-0.7071 -0.7071 0.7071 -0.7071 388.5812 1176.5367)" class="st0" width="14.2" height="42.5"/>
<rect x="501" y="416.4" transform="matrix(-0.7071 -0.7071 0.7071 -0.7071 557.9477 1106.3829)" class="st0" width="14.2" height="42.5"/>
<rect x="90.6" y="146.2" transform="matrix(-0.7071 -0.7071 0.7071 -0.7071 48.2828 354.9839)" class="st0" width="14.2" height="42.5"/>
<rect x="160.7" y="76.1" transform="matrix(-0.7071 -0.7071 0.7071 -0.7071 217.6493 284.83)" class="st0" width="14.2" height="42.5"/>
<path class="st0" d="M111.8,359.3L111.8,359.3c-7.8,0-14.2-6.4-14.2-14.2v-85c0-7.8,6.4-14.2,14.2-14.2h0c7.8,0,14.2,6.4,14.2,14.2
	v85C126,352.9,119.6,359.3,111.8,359.3z"/>
<path class="st0" d="M493.9,359.3L493.9,359.3c-7.8,0-14.2-6.4-14.2-14.2v-85c0-7.8,6.4-14.2,14.2-14.2l0,0
	c7.8,0,14.2,6.4,14.2,14.2v85C508.1,352.9,501.7,359.3,493.9,359.3z"/>
<path class="st0" d="M359.6,493.6L359.6,493.6c0,7.8-6.4,14.2-14.2,14.2h-85c-7.8,0-14.2-6.4-14.2-14.2v0c0-7.8,6.4-14.2,14.2-14.2
	h85C353.2,479.4,359.6,485.8,359.6,493.6z"/>
<path class="st0" d="M359.6,111.5L359.6,111.5c0,7.8-6.4,14.2-14.2,14.2h-85c-7.8,0-14.2-6.4-14.2-14.2v0c0-7.8,6.4-14.2,14.2-14.2
	h85C353.2,97.4,359.6,103.7,359.6,111.5z"/>
<g>
	<circle class="st0" cx="427.2" cy="240.8" r="4.5"/>
	<circle class="st0" cx="440" cy="228.1" r="4.5"/>
	<circle class="st0" cx="452.7" cy="215.3" r="4.5"/>
	<circle class="st0" cx="465.5" cy="202.6" r="4.5"/>
	<circle class="st0" cx="478.2" cy="189.8" r="4.5"/>
	<circle class="st0" cx="491" cy="177.1" r="4.5"/>
	<circle class="st0" cx="364.6" cy="178.2" r="4.5"/>
	<circle class="st0" cx="377.4" cy="165.5" r="4.5"/>
	<circle class="st0" cx="390.1" cy="152.7" r="4.5"/>
	<circle class="st0" cx="402.9" cy="140" r="4.5"/>
	<circle class="st0" cx="415.6" cy="127.2" r="4.5"/>
	<circle class="st0" cx="428.3" cy="114.5" r="4.5"/>
</g>
<circle class="st0" cx="241.1" cy="426.9" r="4.5"/>
<circle class="st0" cx="178.5" cy="364.3" r="4.5"/>
<circle class="st0" cx="165.8" cy="377" r="4.5"/>
<circle class="st0" cx="153" cy="389.8" r="4.5"/>
<circle class="st0" cx="140.3" cy="402.5" r="4.5"/>
<circle class="st0" cx="127.5" cy="415.3" r="4.5"/>
<circle class="st0" cx="114.8" cy="428" r="4.5"/>
<circle class="st0" cx="228.4" cy="439.7" r="4.5"/>
<circle class="st0" cx="215.7" cy="452.4" r="4.5"/>
<circle class="st0" cx="202.9" cy="465.1" r="4.5"/>
<circle class="st0" cx="190.2" cy="477.9" r="4.5"/>
<circle class="st0" cx="177.4" cy="490.6" r="4.5"/>
<g>
	<circle class="st0" cx="241.1" cy="178.2" r="4.5"/>
	<circle class="st0" cx="228.4" cy="165.5" r="4.5"/>
	<circle class="st0" cx="215.7" cy="152.7" r="4.5"/>
	<circle class="st0" cx="202.9" cy="140" r="4.5"/>
	<circle class="st0" cx="190.2" cy="127.2" r="4.5"/>
	<circle class="st0" cx="177.4" cy="114.5" r="4.5"/>
	<circle class="st0" cx="178.5" cy="240.8" r="4.5"/>
	<circle class="st0" cx="165.8" cy="228.1" r="4.5"/>
	<circle class="st0" cx="153" cy="215.3" r="4.5"/>
	<circle class="st0" cx="140.3" cy="202.6" r="4.5"/>
	<circle class="st0" cx="127.5" cy="189.8" r="4.5"/>
	<circle class="st0" cx="114.8" cy="177.1" r="4.5"/>
</g>
<circle class="st0" cx="427.2" cy="364.3" r="4.5"/>
<circle class="st0" cx="364.6" cy="426.9" r="4.5"/>
<circle class="st0" cx="377.4" cy="439.7" r="4.5"/>
<circle class="st0" cx="390.1" cy="452.4" r="4.5"/>
<circle class="st0" cx="402.9" cy="465.1" r="4.5"/>
<circle class="st0" cx="415.6" cy="477.9" r="4.5"/>
<circle class="st0" cx="428.3" cy="490.6" r="4.5"/>
<circle class="st0" cx="440" cy="377" r="4.5"/>
<circle class="st0" cx="452.7" cy="389.8" r="4.5"/>
<circle class="st0" cx="465.5" cy="402.5" r="4.5"/>
<circle class="st0" cx="478.2" cy="415.3" r="4.5"/>
<circle class="st0" cx="491" cy="428" r="4.5"/>
<circle class="st0" cx="388.8" cy="509.9" r="17"/>
<circle class="st0" cx="388.8" cy="509.9" r="5"/>
<circle class="st0" cx="217" cy="509.9" r="17"/>
<circle class="st0" cx="217" cy="509.9" r="5"/>
<circle class="st0" cx="283" cy="81.9" r="4.3"/>
<circle class="st0" cx="322.7" cy="81.9" r="4.3"/>
<circle class="st0" cx="302.9" cy="81.9" r="4.3"/>
<circle class="st0" cx="373.8" cy="111.5" r="4.3"/>
<circle class="st0" cx="232" cy="111.5" r="4.3"/>
<circle class="st0" cx="283" cy="195.9" r="4.3"/>
<circle class="st0" cx="302.9" cy="195.9" r="4.3"/>
<circle class="st0" cx="322.7" cy="195.9" r="4.3"/>
<circle class="st0" cx="1093.8" cy="710.6" r="23.1"/>
<circle class="st0" cx="1024.6" cy="710.6" r="23.1"/>
<circle class="st0" cx="1116.9" cy="687.5" r="4.4"/>
<circle class="st0" cx="1001.5" cy="733.7" r="4.4"/>
<circle class="st0" cx="1039.4" cy="792.9" r="4.3"/>
<circle class="st0" cx="1059.2" cy="792.9" r="4.3"/>
<circle class="st0" cx="1079.1" cy="792.9" r="4.3"/>
<path class="st0" d="M1047.9,680.4v11.3c0,1.6,1.3,2.8,2.8,2.8h17c1.6,0,2.8-1.3,2.8-2.8l0-11.3h49.9c1.9,0,3.5,1.6,3.5,3.5v122.5
	c0,1.9-1.6,3.5-3.5,3.5H998c-1.9,0-3.5-1.6-3.5-3.5V683.9c0-1.9,1.6-3.5,3.5-3.5H1047.9z"/>
<path class="st0" d="M994.4,740.7H1124H994.4z"/>
<rect x="40" y="40.6" class="st0" width="56.7" height="56.7"/>
<circle class="st0" cx="1289.7" cy="95" r="4.4"/>
<circle class="st0" cx="1174.3" cy="141.2" r="4.4"/>
<circle class="st0" cx="1196" cy="118.1" r="23.1"/>
<circle class="st0" cx="1268" cy="118.1" r="23.1"/>
<circle class="st0" cx="1212.2" cy="227.7" r="4.3"/>
<circle class="st0" cx="1232" cy="227.7" r="4.3"/>
<circle class="st0" cx="1251.9" cy="227.7" r="4.3"/>
<path class="st0" d="M1167.3,151.2v-2.8V91.5c0-1.9,1.6-3.5,3.5-3.5h49.9v11.3c0,1.6,1.3,2.8,2.8,2.8h17c1.6,0,2.8-1.3,2.8-2.8
	c0,0,0-11.3,0-11.3h49.9c1.9,0,3.5,1.6,3.5,3.5v56.8v2.8v90.7c0,1.6-1.3,2.8-2.8,2.8h-123.9c-1.6,0-2.8-1.3-2.8-2.8V151.2z"/>
<line class="st0" x1="1167.3" y1="176.3" x2="1296.8" y2="176.3"/>
</svg>
