<?xml version="1.0" encoding="utf-8"?>
<!-- Generator: Adobe Illustrator 19.1.0, SVG Export Plug-In . SVG Version: 6.00 Build 0)  -->
<svg version="1.1" id="Layer_1" xmlns="http://www.w3.org/2000/svg" xmlns:xlink="http://www.w3.org/1999/xlink" x="0px" y="0px"
	 viewBox="0 0 283.5 283.5" style="enable-background:new 0 0 283.5 283.5;" xml:space="preserve">
<style type="text/css">
	.st0{fill:none;stroke:#1D1D1B;stroke-width:0.5;stroke-miterlimit:10;}
</style>
<g>
	<g>
		<circle class="st0" cx="87.9" cy="92.3" r="4.3"/>
		<circle class="st0" cx="195.5" cy="92.1" r="4.3"/>
		<circle class="st0" cx="87.9" cy="92.3" r="4.3"/>
		<circle class="st0" cx="195.5" cy="92.1" r="4.3"/>
	</g>
	<circle class="st0" cx="103.5" cy="177.2" r="22.7"/>
	<circle class="st0" cx="180" cy="177.2" r="22.7"/>
	<g>
		<polygon class="st0" points="153.1,168.7 141.7,168.7 130.4,168.7 117.6,148.8 165.8,148.8 		"/>
	</g>
	<g>
		<path class="st0" d="M165.8,205.5l-12.8-19.8h-11.3h-11.3l-12.8,19.8H73.7c-3.1,0-5.7-2.6-5.7-5.7V112v-11.3v-17
			c0-3.1,2.6-5.7,5.7-5.7h136.1c3.1,0,5.7,2.6,5.7,5.7v17V112v87.9c0,3.1-2.6,5.7-5.7,5.7H165.8z"/>
	</g>
</g>
</svg>
