<?xml version="1.0" encoding="utf-8"?>
<!-- Generator: Adobe Illustrator 19.1.0, SVG Export Plug-In . SVG Version: 6.00 Build 0)  -->
<svg version="1.1" id="Layer_1" xmlns="http://www.w3.org/2000/svg" xmlns:xlink="http://www.w3.org/1999/xlink" x="0px" y="0px"
	 viewBox="0 0 850.4 564.1" style="enable-background:new 0 0 850.4 564.1;" xml:space="preserve">
<style type="text/css">
	.st0{fill:none;stroke:#000000;stroke-width:0.5;stroke-miterlimit:10;}
</style>
<path class="st0" d="M308.4,535.6L171.6,398.8c-5.3-5.3-8.3-12.5-8.3-20V185.3c0-7.5,3-14.7,8.3-20L308.4,28.5
	c5.3-5.3,12.5-8.3,20-8.3h193.5c7.5,0,14.7,3,20,8.3l136.8,136.8c5.3,5.3,8.3,12.5,8.3,20v193.5c0,7.5-3,14.7-8.3,20L542,535.6
	c-5.3,5.3-12.5,8.3-20,8.3H328.5C320.9,543.9,313.7,540.9,308.4,535.6z"/>
<rect x="177.5" y="211.2" class="st0" width="14.2" height="42.5"/>
<rect x="177.5" y="310.4" class="st0" width="14.2" height="42.5"/>
<rect x="658.7" y="211.2" class="st0" width="14.2" height="42.5"/>
<rect x="658.7" y="310.4" class="st0" width="14.2" height="42.5"/>
<rect x="354.3" y="515.6" class="st0" width="42.5" height="14.2"/>
<rect x="453.5" y="515.6" class="st0" width="42.5" height="14.2"/>
<rect x="354.3" y="34.3" class="st0" width="42.5" height="14.2"/>
<rect x="453.5" y="34.3" class="st0" width="42.5" height="14.2"/>
<rect x="212.9" y="395.9" transform="matrix(0.7071 -0.7071 0.7071 0.7071 -230.519 277.7123)" class="st0" width="14.2" height="42.5"/>
<rect x="283" y="466" transform="matrix(0.7071 -0.7071 0.7071 0.7071 -259.5777 347.8662)" class="st0" width="14.2" height="42.5"/>
<rect x="553.2" y="55.6" transform="matrix(0.7071 -0.7071 0.7071 0.7071 109.7793 418.6685)" class="st0" width="14.2" height="42.5"/>
<rect x="623.3" y="125.7" transform="matrix(0.7071 -0.7071 0.7071 0.7071 80.7206 488.8224)" class="st0" width="14.2" height="42.5"/>
<rect x="553.2" y="466" transform="matrix(-0.7071 -0.7071 0.7071 -0.7071 611.8833 1227.9926)" class="st0" width="14.2" height="42.5"/>
<rect x="623.3" y="395.9" transform="matrix(-0.7071 -0.7071 0.7071 -0.7071 781.2498 1157.8387)" class="st0" width="14.2" height="42.5"/>
<rect x="212.9" y="125.7" transform="matrix(-0.7071 -0.7071 0.7071 -0.7071 271.5849 406.4397)" class="st0" width="14.2" height="42.5"/>
<rect x="283" y="55.6" transform="matrix(-0.7071 -0.7071 0.7071 -0.7071 440.9514 336.2858)" class="st0" width="14.2" height="42.5"/>
<path class="st0" d="M334.3,283.1c0,2-0.3,3.8-0.8,5.5c-0.5,1.7-1.3,3.1-2.2,4.3c-1,1.2-2.2,2.1-3.6,2.8c-1.4,0.7-3.1,1-4.9,1
	c-1.2,0-2.4-0.2-3.4-0.4c-1-0.3-1.9-0.6-2.5-1v10.1h-6v-34.5c1.2-0.3,2.7-0.6,4.5-0.9s3.7-0.4,5.7-0.4c2.1,0,3.9,0.3,5.5,0.9
	c1.6,0.6,3,1.5,4.2,2.7c1.1,1.2,2,2.6,2.6,4.3C334,279.2,334.3,281,334.3,283.1z M328.2,283.2c0-2.7-0.6-4.8-1.8-6.3
	c-1.2-1.5-3.2-2.2-5.9-2.2c-0.6,0-1.2,0-1.8,0.1c-0.6,0-1.2,0.2-1.8,0.3V290c0.5,0.4,1.2,0.7,2.1,1c0.9,0.3,1.8,0.5,2.8,0.5
	c2.2,0,3.8-0.7,4.8-2.2C327.7,287.8,328.2,285.8,328.2,283.2z"/>
<path class="st0" d="M364.2,283.1c0,2.1-0.3,3.9-0.9,5.6c-0.6,1.7-1.4,3.1-2.5,4.3c-1.1,1.2-2.4,2.1-4,2.8c-1.5,0.7-3.3,1-5.1,1
	c-1.9,0-3.6-0.3-5.1-1c-1.5-0.7-2.8-1.6-3.9-2.8c-1.1-1.2-2-2.6-2.6-4.3c-0.6-1.7-0.9-3.6-0.9-5.6c0-2.1,0.3-3.9,0.9-5.6
	c0.6-1.7,1.5-3.1,2.6-4.3c1.1-1.2,2.4-2.1,4-2.8c1.5-0.6,3.2-1,5-1c1.8,0,3.5,0.3,5.1,1c1.5,0.6,2.9,1.6,4,2.8
	c1.1,1.2,2,2.6,2.6,4.3C363.9,279.2,364.2,281,364.2,283.1z M358,283.1c0-2.6-0.6-4.6-1.7-6.2c-1.1-1.5-2.7-2.3-4.7-2.3
	c-2,0-3.5,0.8-4.7,2.3c-1.1,1.5-1.7,3.6-1.7,6.2c0,2.6,0.6,4.7,1.7,6.2c1.1,1.5,2.7,2.3,4.7,2.3c2,0,3.5-0.8,4.7-2.3
	C357.4,287.8,358,285.7,358,283.1z"/>
<path class="st0" d="M376.9,291.8c1.6,0,2.8-0.2,3.5-0.6c0.7-0.4,1.1-1,1.1-2c0-0.9-0.4-1.6-1.2-2.1c-0.8-0.6-2.1-1.2-3.9-1.8
	c-1.1-0.4-2.1-0.8-3-1.3c-0.9-0.4-1.7-1-2.4-1.6c-0.7-0.6-1.2-1.3-1.6-2.2c-0.4-0.8-0.6-1.9-0.6-3.1c0-2.4,0.9-4.3,2.6-5.7
	c1.8-1.4,4.2-2.1,7.2-2.1c1.5,0,3,0.1,4.4,0.4c1.4,0.3,2.4,0.6,3.1,0.8l-1.1,4.9c-0.7-0.3-1.5-0.6-2.5-0.8c-1-0.2-2.2-0.4-3.6-0.4
	c-1.2,0-2.2,0.2-3,0.6c-0.8,0.4-1.1,1.1-1.1,1.9c0,0.4,0.1,0.8,0.2,1.1c0.1,0.3,0.4,0.6,0.8,0.9c0.4,0.3,0.8,0.6,1.4,0.8
	c0.6,0.3,1.3,0.6,2.2,0.9c1.4,0.5,2.6,1.1,3.6,1.6c1,0.5,1.8,1.1,2.5,1.7c0.6,0.6,1.1,1.4,1.4,2.2c0.3,0.8,0.4,1.8,0.4,3
	c0,2.5-0.9,4.4-2.8,5.7c-1.8,1.3-4.5,1.9-7.9,1.9c-2.3,0-4.1-0.2-5.5-0.6c-1.4-0.4-2.4-0.7-2.9-0.9l1-5c0.9,0.4,2,0.7,3.2,1
	C373.9,291.7,375.3,291.8,376.9,291.8z"/>
<path class="st0" d="M399.9,262.4c0,1.1-0.4,2-1.1,2.7c-0.7,0.7-1.6,1-2.6,1c-1,0-1.9-0.3-2.6-1c-0.7-0.7-1.1-1.6-1.1-2.7
	c0-1.2,0.4-2.1,1.1-2.7c0.7-0.7,1.6-1,2.6-1c1,0,1.9,0.3,2.6,1C399.6,260.4,399.9,261.3,399.9,262.4z M399.3,296.2h-6v-26.1h6V296.2
	z"/>
<path class="st0" d="M406.7,263.2l6-1v7.9h9.3v5h-9.3v10.6c0,2.1,0.3,3.6,1,4.5c0.7,0.9,1.8,1.3,3.4,1.3c1.1,0,2.1-0.1,2.9-0.3
	c0.8-0.2,1.5-0.4,2-0.6l1,4.8c-0.7,0.3-1.6,0.6-2.7,0.9c-1.1,0.3-2.5,0.5-4,0.5c-1.9,0-3.4-0.2-4.7-0.7c-1.2-0.5-2.2-1.2-3-2.2
	c-0.7-0.9-1.2-2.1-1.5-3.4c-0.3-1.3-0.4-2.9-0.4-4.6V263.2z"/>
<path class="st0" d="M442.7,275.5c-0.5-0.2-1.2-0.3-2.1-0.5c-0.9-0.2-1.9-0.3-3.1-0.3c-0.7,0-1.4,0.1-2.1,0.2
	c-0.7,0.1-1.3,0.2-1.6,0.3v20.9h-6v-24.8c1.2-0.4,2.6-0.8,4.4-1.2c1.7-0.4,3.7-0.6,5.8-0.6c0.4,0,0.9,0,1.4,0.1
	c0.5,0,1.1,0.1,1.6,0.2c0.5,0.1,1,0.2,1.5,0.3c0.5,0.1,0.9,0.2,1.2,0.3L442.7,275.5z"/>
<path class="st0" d="M471.5,283.1c0,2.1-0.3,3.9-0.9,5.6c-0.6,1.7-1.4,3.1-2.5,4.3c-1.1,1.2-2.4,2.1-4,2.8c-1.5,0.7-3.3,1-5.1,1
	c-1.9,0-3.6-0.3-5.1-1c-1.5-0.7-2.8-1.6-3.9-2.8c-1.1-1.2-2-2.6-2.6-4.3c-0.6-1.7-0.9-3.6-0.9-5.6c0-2.1,0.3-3.9,0.9-5.6
	c0.6-1.7,1.5-3.1,2.6-4.3c1.1-1.2,2.4-2.1,4-2.8c1.5-0.6,3.2-1,5-1c1.8,0,3.5,0.3,5.1,1c1.5,0.6,2.9,1.6,4,2.8
	c1.1,1.2,2,2.6,2.6,4.3C471.2,279.2,471.5,281,471.5,283.1z M465.3,283.1c0-2.6-0.6-4.6-1.7-6.2c-1.1-1.5-2.7-2.3-4.7-2.3
	c-2,0-3.6,0.8-4.7,2.3c-1.1,1.5-1.7,3.6-1.7,6.2c0,2.6,0.6,4.7,1.7,6.2c1.1,1.5,2.7,2.3,4.7,2.3c2,0,3.5-0.8,4.7-2.3
	C464.8,287.8,465.3,285.7,465.3,283.1z"/>
<path class="st0" d="M477.7,270.9c1.2-0.3,2.7-0.6,4.5-0.9c1.9-0.3,3.9-0.4,6.2-0.4c2.1,0,3.9,0.3,5.3,0.9c1.4,0.6,2.6,1.4,3.4,2.4
	c0.8,1,1.4,2.3,1.8,3.8c0.3,1.5,0.5,3.1,0.5,4.9v14.7h-6v-13.7c0-1.4-0.1-2.6-0.3-3.6c-0.2-1-0.5-1.8-0.9-2.4
	c-0.4-0.6-1-1.1-1.7-1.3c-0.7-0.3-1.6-0.4-2.6-0.4c-0.8,0-1.6,0-2.4,0.1s-1.4,0.2-1.8,0.2v21h-6V270.9z"/>
<path class="st0" d="M513.7,262.4c0,1.1-0.4,2-1.1,2.7c-0.7,0.7-1.6,1-2.6,1c-1,0-1.9-0.3-2.6-1c-0.7-0.7-1.1-1.6-1.1-2.7
	c0-1.2,0.4-2.1,1.1-2.7c0.7-0.7,1.6-1,2.6-1c1,0,1.9,0.3,2.6,1C513.3,260.4,513.7,261.3,513.7,262.4z M513,296.2h-6v-26.1h6V296.2z"
	/>
<path class="st0" d="M519.2,283.1c0-1.9,0.3-3.7,0.9-5.4c0.6-1.7,1.5-3.1,2.6-4.4c1.1-1.2,2.5-2.2,4.1-2.9c1.6-0.7,3.4-1,5.4-1
	c2.5,0,4.8,0.4,7,1.3l-1.3,4.9c-0.7-0.3-1.5-0.5-2.4-0.7c-0.9-0.2-1.8-0.3-2.8-0.3c-2.4,0-4.2,0.7-5.4,2.2c-1.2,1.5-1.8,3.6-1.8,6.3
	c0,2.6,0.6,4.6,1.7,6.2s3.1,2.3,5.9,2.3c1,0,2-0.1,3-0.3c1-0.2,1.9-0.4,2.6-0.7l0.8,5c-0.7,0.3-1.7,0.6-3,0.9
	c-1.3,0.3-2.7,0.4-4.2,0.4c-2.2,0-4.2-0.3-5.8-1c-1.6-0.7-3-1.6-4.1-2.8c-1.1-1.2-1.9-2.7-2.4-4.3S519.2,285.1,519.2,283.1z"/>
</svg>
