<?xml version="1.0" encoding="utf-8"?>
<!-- Generator: Adobe Illustrator 19.1.0, SVG Export Plug-In . SVG Version: 6.00 Build 0)  -->
<svg version="1.1" id="Layer_1" xmlns="http://www.w3.org/2000/svg" xmlns:xlink="http://www.w3.org/1999/xlink" x="0px" y="0px"
	 viewBox="0 0 850.4 564.1" style="enable-background:new 0 0 850.4 564.1;" xml:space="preserve">
<style type="text/css">
	.st0{fill:none;stroke:#000000;stroke-width:0.5;stroke-miterlimit:10;}
</style>
<polygon class="st0" points="292.1,251.2 267.1,251.2 267.1,393 292.1,393 292.1,407.1 334.6,407.1 334.6,393 391.3,393 
	391.3,407.1 433.8,407.1 433.8,393 458.8,393 458.8,251.2 433.8,251.2 433.8,237.1 391.3,237.1 391.3,251.2 334.6,251.2 
	334.6,237.1 292.1,237.1 "/>
<polygon class="st0" points="66,47 41.1,47 41.1,188.7 66,188.7 66,202.9 108.5,202.9 108.5,188.7 165.2,188.7 165.2,202.9 
	207.8,202.9 207.8,188.7 232.7,188.7 232.7,47 207.8,47 207.8,32.8 165.2,32.8 165.2,47 108.5,47 108.5,32.8 66,32.8 "/>
<path class="st0" d="M89.4,111.5c-1.5,0-2.6,0.5-3.4,1.4c-0.8,0.9-1.2,2.2-1.2,3.9c0,0.8,0.1,1.5,0.3,2.2c0.2,0.7,0.5,1.2,0.8,1.7
	s0.8,0.8,1.4,1.1c0.6,0.3,1.2,0.4,1.9,0.4c0.5,0,0.9,0,1.2-0.1s0.6-0.1,0.8-0.1v-5.2h2.6v7c-0.4,0.1-1,0.3-1.8,0.5s-1.9,0.3-3,0.3
	c-1,0-2-0.2-2.9-0.5c-0.9-0.3-1.6-0.8-2.2-1.5c-0.6-0.6-1.1-1.4-1.4-2.4c-0.3-0.9-0.5-2-0.5-3.2c0-1.2,0.2-2.3,0.6-3.2
	s0.9-1.7,1.5-2.4c0.6-0.7,1.4-1.1,2.3-1.5c0.9-0.3,1.8-0.5,2.8-0.5c0.7,0,1.3,0,1.8,0.1c0.5,0.1,1,0.2,1.4,0.3
	c0.4,0.1,0.7,0.2,0.9,0.4s0.4,0.2,0.5,0.3l-0.8,2.2c-0.4-0.3-0.9-0.5-1.6-0.6C90.7,111.6,90.1,111.5,89.4,111.5z"/>
<path class="st0" d="M96.2,118.6c0-1,0.1-1.8,0.4-2.5c0.3-0.7,0.7-1.3,1.1-1.8c0.5-0.5,1-0.8,1.6-1.1c0.6-0.2,1.2-0.4,1.9-0.4
	c1.5,0,2.7,0.5,3.5,1.4c0.8,0.9,1.3,2.3,1.3,4.2c0,0.1,0,0.3,0,0.5c0,0.2,0,0.3,0,0.5h-7.2c0.1,0.9,0.4,1.6,0.9,2
	c0.6,0.5,1.4,0.7,2.4,0.7c0.6,0,1.2-0.1,1.7-0.2c0.5-0.1,0.9-0.2,1.2-0.4l0.3,2.1c-0.1,0.1-0.3,0.1-0.6,0.2
	c-0.2,0.1-0.5,0.1-0.8,0.2c-0.3,0.1-0.7,0.1-1,0.2c-0.4,0-0.7,0.1-1.1,0.1c-1,0-1.8-0.1-2.5-0.4c-0.7-0.3-1.3-0.7-1.8-1.2
	c-0.5-0.5-0.8-1.1-1-1.8C96.3,120.2,96.2,119.4,96.2,118.6z M103.6,117.5c0-0.3,0-0.7-0.1-1c-0.1-0.3-0.2-0.6-0.4-0.8
	c-0.2-0.2-0.4-0.4-0.7-0.5c-0.3-0.1-0.6-0.2-1-0.2c-0.4,0-0.7,0.1-1,0.2s-0.5,0.3-0.7,0.6c-0.2,0.2-0.4,0.5-0.5,0.8
	c-0.1,0.3-0.2,0.6-0.2,0.9H103.6z"/>
<path class="st0" d="M118.7,118.5c0,0.9-0.1,1.7-0.4,2.4s-0.6,1.3-1.1,1.8c-0.5,0.5-1,0.9-1.7,1.2c-0.7,0.3-1.4,0.4-2.2,0.4
	s-1.5-0.1-2.1-0.4c-0.6-0.3-1.2-0.7-1.7-1.2c-0.5-0.5-0.8-1.1-1.1-1.8c-0.3-0.7-0.4-1.5-0.4-2.4s0.1-1.7,0.4-2.4
	c0.3-0.7,0.6-1.3,1.1-1.8c0.5-0.5,1-0.9,1.7-1.2c0.6-0.3,1.4-0.4,2.1-0.4s1.5,0.1,2.1,0.4c0.7,0.3,1.2,0.7,1.7,1.2
	c0.5,0.5,0.8,1.1,1.1,1.8C118.6,116.9,118.7,117.7,118.7,118.5z M116.1,118.5c0-1.1-0.2-2-0.7-2.6c-0.5-0.6-1.1-1-2-1
	c-0.8,0-1.5,0.3-2,1c-0.5,0.6-0.7,1.5-0.7,2.6c0,1.1,0.2,2,0.7,2.6c0.5,0.6,1.1,1,2,1c0.8,0,1.5-0.3,2-1
	C115.9,120.5,116.1,119.7,116.1,118.5z"/>
<path class="st0" d="M127.6,115.4c-0.2-0.1-0.5-0.1-0.9-0.2c-0.4-0.1-0.8-0.1-1.3-0.1c-0.3,0-0.6,0-0.9,0.1s-0.5,0.1-0.7,0.1v8.8
	h-2.5v-10.5c0.5-0.2,1.1-0.4,1.8-0.5c0.7-0.2,1.6-0.2,2.4-0.2c0.2,0,0.4,0,0.6,0s0.4,0,0.7,0.1c0.2,0,0.4,0.1,0.7,0.1
	c0.2,0,0.4,0.1,0.5,0.1L127.6,115.4z"/>
<path class="st0" d="M138.9,122.9c0,1.7-0.4,3-1.3,3.8s-2.3,1.2-4.1,1.2c-0.7,0-1.3-0.1-2-0.2c-0.6-0.1-1.2-0.3-1.7-0.4l0.5-2.2
	c0.4,0.2,0.9,0.3,1.5,0.4c0.6,0.1,1.2,0.2,1.8,0.2c1,0,1.8-0.2,2.2-0.6c0.4-0.4,0.7-1,0.7-1.9v-0.4c-0.3,0.1-0.6,0.3-1,0.4
	s-0.9,0.2-1.4,0.2c-0.7,0-1.3-0.1-1.9-0.3c-0.6-0.2-1.1-0.6-1.5-1c-0.4-0.4-0.7-1-1-1.6s-0.3-1.4-0.3-2.3c0-0.8,0.1-1.5,0.4-2.2
	c0.2-0.7,0.6-1.2,1.1-1.7c0.5-0.5,1-0.8,1.7-1.1c0.7-0.3,1.4-0.4,2.3-0.4c0.8,0,1.6,0.1,2.4,0.2s1.4,0.3,1.9,0.4V122.9z
	 M131.8,118.3c0,1.1,0.2,1.9,0.7,2.4c0.5,0.5,1.1,0.7,1.8,0.7c0.4,0,0.8-0.1,1.1-0.2c0.4-0.1,0.6-0.2,0.9-0.4v-5.7
	c-0.2,0-0.4-0.1-0.7-0.1c-0.3,0-0.6-0.1-1-0.1c-0.9,0-1.6,0.3-2.1,0.9C132.1,116.5,131.8,117.3,131.8,118.3z"/>
<path class="st0" d="M141.5,118.6c0-1,0.1-1.8,0.4-2.5c0.3-0.7,0.7-1.3,1.1-1.8c0.5-0.5,1-0.8,1.6-1.1c0.6-0.2,1.2-0.4,1.9-0.4
	c1.5,0,2.7,0.5,3.5,1.4c0.8,0.9,1.3,2.3,1.3,4.2c0,0.1,0,0.3,0,0.5c0,0.2,0,0.3,0,0.5h-7.2c0.1,0.9,0.4,1.6,0.9,2
	c0.6,0.5,1.4,0.7,2.4,0.7c0.6,0,1.2-0.1,1.7-0.2c0.5-0.1,0.9-0.2,1.2-0.4l0.3,2.1c-0.1,0.1-0.3,0.1-0.6,0.2
	c-0.2,0.1-0.5,0.1-0.8,0.2c-0.3,0.1-0.7,0.1-1,0.2c-0.4,0-0.7,0.1-1.1,0.1c-1,0-1.8-0.1-2.5-0.4c-0.7-0.3-1.3-0.7-1.8-1.2
	c-0.5-0.5-0.8-1.1-1-1.8C141.6,120.2,141.5,119.4,141.5,118.6z M148.9,117.5c0-0.3,0-0.7-0.1-1c-0.1-0.3-0.2-0.6-0.4-0.8
	c-0.2-0.2-0.4-0.4-0.7-0.5c-0.3-0.1-0.6-0.2-1-0.2c-0.4,0-0.7,0.1-1,0.2s-0.5,0.3-0.7,0.6c-0.2,0.2-0.4,0.5-0.5,0.8
	c-0.1,0.3-0.2,0.6-0.2,0.9H148.9z"/>
<path class="st0" d="M169.3,109.5v2.3h-4.5v12.3h-2.7v-12.3h-4.5v-2.3H169.3z"/>
<path class="st0" d="M179.5,123.7c-0.5,0.1-1.1,0.3-1.9,0.4c-0.8,0.1-1.6,0.2-2.6,0.2c-0.9,0-1.6-0.1-2.2-0.4
	c-0.6-0.3-1.1-0.6-1.4-1c-0.4-0.4-0.6-1-0.8-1.6c-0.2-0.6-0.2-1.3-0.2-2v-6.2h2.5v5.8c0,1.2,0.2,2,0.5,2.5c0.3,0.5,0.9,0.8,1.8,0.8
	c0.3,0,0.6,0,1,0c0.3,0,0.6-0.1,0.8-0.1v-8.9h2.5V123.7z"/>
<path class="st0" d="M186.5,124.3c-0.8,0-1.4-0.1-1.9-0.3c-0.5-0.2-0.9-0.4-1.2-0.7c-0.3-0.3-0.5-0.6-0.6-1.1
	c-0.1-0.4-0.2-0.9-0.2-1.5v-12.6l2.5-0.4v12.6c0,0.3,0,0.6,0.1,0.8c0,0.2,0.1,0.4,0.3,0.5s0.3,0.3,0.5,0.3c0.2,0.1,0.5,0.1,0.8,0.2
	L186.5,124.3z"/>
<path class="st0" d="M191.8,109.9c0,0.5-0.2,0.9-0.5,1.1c-0.3,0.3-0.7,0.4-1.1,0.4c-0.4,0-0.8-0.1-1.1-0.4c-0.3-0.3-0.5-0.7-0.5-1.1
	c0-0.5,0.2-0.9,0.5-1.2c0.3-0.3,0.7-0.4,1.1-0.4c0.4,0,0.8,0.1,1.1,0.4C191.6,109,191.8,109.4,191.8,109.9z M191.5,124.1H189v-11
	h2.5V124.1z"/>
<polygon class="st0" points="292.1,46.6 267.1,46.6 267.1,188.3 292.1,188.3 292.1,202.5 334.6,202.5 334.6,188.3 391.3,188.3 
	391.3,202.5 433.8,202.5 433.8,188.3 458.8,188.3 458.8,46.6 433.8,46.6 433.8,32.4 391.3,32.4 391.3,46.6 334.6,46.6 334.6,32.4 
	292.1,32.4 "/>
<path class="st0" d="M321.5,125.8c-1.1,0-2.1-0.2-2.9-0.5c-0.9-0.3-1.6-0.8-2.2-1.5s-1.1-1.4-1.4-2.4c-0.3-0.9-0.5-2-0.5-3.2
	c0-1.2,0.2-2.3,0.6-3.2s0.9-1.7,1.5-2.4c0.6-0.7,1.4-1.1,2.3-1.5c0.9-0.3,1.8-0.5,2.8-0.5c0.6,0,1.1,0,1.6,0.1
	c0.5,0.1,0.9,0.2,1.3,0.3c0.4,0.1,0.7,0.2,0.9,0.4c0.2,0.1,0.4,0.2,0.5,0.3l-0.8,2.2c-0.3-0.2-0.8-0.4-1.4-0.6s-1.3-0.3-2-0.3
	c-0.6,0-1.2,0.1-1.8,0.3c-0.5,0.2-1,0.5-1.4,1c-0.4,0.4-0.7,1-0.9,1.6c-0.2,0.7-0.3,1.4-0.3,2.3c0,0.8,0.1,1.5,0.3,2.1
	c0.2,0.6,0.4,1.2,0.8,1.7c0.4,0.5,0.8,0.8,1.4,1.1c0.6,0.3,1.2,0.4,2,0.4c0.9,0,1.7-0.1,2.3-0.3s1-0.4,1.4-0.5l0.7,2.2
	c-0.2,0.1-0.4,0.2-0.7,0.3c-0.3,0.1-0.6,0.2-1,0.3c-0.4,0.1-0.8,0.2-1.3,0.3C322.5,125.8,322,125.8,321.5,125.8z"/>
<path class="st0" d="M328.3,125.5v-15.9l2.5-0.4v5.4c0.3-0.1,0.6-0.2,1-0.3c0.4-0.1,0.7-0.1,1.1-0.1c0.9,0,1.6,0.1,2.2,0.4
	c0.6,0.2,1,0.6,1.4,1c0.3,0.4,0.6,1,0.7,1.6c0.1,0.6,0.2,1.3,0.2,2.1v6.2h-2.5v-5.8c0-0.6,0-1.1-0.1-1.5c-0.1-0.4-0.2-0.7-0.4-1
	c-0.2-0.3-0.4-0.4-0.7-0.6c-0.3-0.1-0.7-0.2-1.1-0.2c-0.3,0-0.7,0-1,0.1c-0.4,0.1-0.6,0.1-0.8,0.2v8.7H328.3z"/>
<path class="st0" d="M346.7,116.8c-0.2-0.1-0.5-0.1-0.9-0.2c-0.4-0.1-0.8-0.1-1.3-0.1c-0.3,0-0.6,0-0.9,0.1s-0.5,0.1-0.7,0.1v8.8
	h-2.5V115c0.5-0.2,1.1-0.4,1.8-0.5c0.7-0.2,1.6-0.2,2.4-0.2c0.2,0,0.4,0,0.6,0s0.4,0,0.7,0.1c0.2,0,0.4,0.1,0.7,0.1
	c0.2,0,0.4,0.1,0.5,0.1L346.7,116.8z"/>
<path class="st0" d="M351.8,111.3c0,0.5-0.2,0.9-0.5,1.1c-0.3,0.3-0.7,0.4-1.1,0.4c-0.4,0-0.8-0.1-1.1-0.4c-0.3-0.3-0.5-0.7-0.5-1.1
	c0-0.5,0.2-0.9,0.5-1.2c0.3-0.3,0.7-0.4,1.1-0.4c0.4,0,0.8,0.1,1.1,0.4C351.6,110.4,351.8,110.8,351.8,111.3z M351.5,125.5H349v-11
	h2.5V125.5z"/>
<path class="st0" d="M357.5,123.6c0.7,0,1.2-0.1,1.5-0.2s0.5-0.4,0.5-0.8c0-0.4-0.2-0.7-0.5-0.9c-0.3-0.2-0.9-0.5-1.6-0.8
	c-0.5-0.2-0.9-0.3-1.3-0.5c-0.4-0.2-0.7-0.4-1-0.7c-0.3-0.3-0.5-0.6-0.7-0.9c-0.2-0.4-0.2-0.8-0.2-1.3c0-1,0.4-1.8,1.1-2.4
	c0.7-0.6,1.8-0.9,3-0.9c0.6,0,1.3,0.1,1.8,0.2c0.6,0.1,1,0.2,1.3,0.3l-0.5,2.1c-0.3-0.1-0.6-0.2-1.1-0.3c-0.4-0.1-0.9-0.2-1.5-0.2
	c-0.5,0-0.9,0.1-1.3,0.3c-0.3,0.2-0.5,0.4-0.5,0.8c0,0.2,0,0.3,0.1,0.5c0.1,0.1,0.2,0.3,0.3,0.4c0.2,0.1,0.4,0.2,0.6,0.4
	c0.3,0.1,0.6,0.2,0.9,0.4c0.6,0.2,1.1,0.4,1.5,0.7c0.4,0.2,0.8,0.5,1,0.7c0.3,0.3,0.5,0.6,0.6,0.9c0.1,0.4,0.2,0.8,0.2,1.3
	c0,1-0.4,1.8-1.2,2.4c-0.8,0.5-1.9,0.8-3.3,0.8c-1,0-1.7-0.1-2.3-0.2c-0.6-0.2-1-0.3-1.2-0.4l0.4-2.1c0.4,0.2,0.8,0.3,1.4,0.4
	C356.2,123.6,356.8,123.6,357.5,123.6z"/>
<path class="st0" d="M378.6,123.2v2.3h-9.2v-14.6h2.6v12.3H378.6z"/>
<path class="st0" d="M389.5,125.1c-0.5,0.1-1.1,0.3-1.9,0.4c-0.8,0.1-1.6,0.2-2.6,0.2c-0.9,0-1.6-0.1-2.2-0.4
	c-0.6-0.3-1.1-0.6-1.4-1c-0.4-0.4-0.6-1-0.8-1.6c-0.2-0.6-0.2-1.3-0.2-2v-6.2h2.5v5.8c0,1.2,0.2,2,0.5,2.5c0.3,0.5,0.9,0.8,1.8,0.8
	c0.3,0,0.6,0,1,0c0.3,0,0.6-0.1,0.8-0.1v-8.9h2.5V125.1z"/>
<path class="st0" d="M395.4,123.6c0.7,0,1.2-0.1,1.5-0.2s0.5-0.4,0.5-0.8c0-0.4-0.2-0.7-0.5-0.9c-0.3-0.2-0.9-0.5-1.6-0.8
	c-0.5-0.2-0.9-0.3-1.3-0.5c-0.4-0.2-0.7-0.4-1-0.7c-0.3-0.3-0.5-0.6-0.7-0.9c-0.2-0.4-0.2-0.8-0.2-1.3c0-1,0.4-1.8,1.1-2.4
	c0.7-0.6,1.8-0.9,3-0.9c0.6,0,1.3,0.1,1.8,0.2c0.6,0.1,1,0.2,1.3,0.3l-0.5,2.1c-0.3-0.1-0.6-0.2-1.1-0.3c-0.4-0.1-0.9-0.2-1.5-0.2
	c-0.5,0-0.9,0.1-1.3,0.3c-0.3,0.2-0.5,0.4-0.5,0.8c0,0.2,0,0.3,0.1,0.5c0.1,0.1,0.2,0.3,0.3,0.4c0.2,0.1,0.4,0.2,0.6,0.4
	c0.3,0.1,0.6,0.2,0.9,0.4c0.6,0.2,1.1,0.4,1.5,0.7c0.4,0.2,0.8,0.5,1,0.7c0.3,0.3,0.5,0.6,0.6,0.9c0.1,0.4,0.2,0.8,0.2,1.3
	c0,1-0.4,1.8-1.2,2.4c-0.8,0.5-1.9,0.8-3.3,0.8c-1,0-1.7-0.1-2.3-0.2c-0.6-0.2-1-0.3-1.2-0.4l0.4-2.1c0.4,0.2,0.8,0.3,1.4,0.4
	C394.2,123.6,394.8,123.6,395.4,123.6z"/>
<path class="st0" d="M402.3,125.5v-15.9l2.5-0.4v5.4c0.3-0.1,0.6-0.2,1-0.3c0.4-0.1,0.7-0.1,1.1-0.1c0.9,0,1.6,0.1,2.2,0.4
	c0.6,0.2,1,0.6,1.4,1c0.3,0.4,0.6,1,0.7,1.6c0.1,0.6,0.2,1.3,0.2,2.1v6.2h-2.5v-5.8c0-0.6,0-1.1-0.1-1.5c-0.1-0.4-0.2-0.7-0.4-1
	c-0.2-0.3-0.4-0.4-0.7-0.6c-0.3-0.1-0.7-0.2-1.1-0.2c-0.3,0-0.7,0-1,0.1c-0.4,0.1-0.6,0.1-0.8,0.2v8.7H402.3z"/>
<polygon class="st0" points="67.3,251.6 42.4,251.6 42.4,393.4 67.3,393.4 67.3,407.5 109.8,407.5 109.8,393.4 166.5,393.4 
	166.5,407.5 209,407.5 209,393.4 234,393.4 234,251.6 209,251.6 209,237.5 166.5,237.5 166.5,251.6 109.8,251.6 109.8,237.5 
	67.3,237.5 "/>
<path class="st0" d="M124.6,319c0,0.5-0.1,1-0.3,1.5s-0.5,1-0.8,1.4c-0.3,0.5-0.7,0.9-1.1,1.3s-0.8,0.8-1.3,1.2
	c-0.2,0.2-0.5,0.5-0.8,0.8c-0.3,0.3-0.5,0.6-0.8,0.9s-0.5,0.6-0.7,0.9c-0.2,0.3-0.3,0.5-0.3,0.7h6.5v2.1h-9.3c0-0.1,0-0.2,0-0.4
	s0-0.3,0-0.4c0-0.7,0.1-1.3,0.3-1.9c0.2-0.6,0.5-1.1,0.9-1.6c0.3-0.5,0.7-1,1.2-1.4c0.4-0.4,0.9-0.9,1.3-1.3c0.3-0.3,0.7-0.6,1-0.9
	c0.3-0.3,0.6-0.6,0.8-0.9c0.2-0.3,0.4-0.6,0.6-0.9c0.1-0.3,0.2-0.6,0.2-1c0-0.7-0.2-1.2-0.6-1.6c-0.4-0.3-0.9-0.5-1.5-0.5
	c-0.4,0-0.8,0.1-1.1,0.2c-0.3,0.1-0.6,0.2-0.9,0.4c-0.3,0.2-0.5,0.3-0.7,0.5c-0.2,0.2-0.3,0.3-0.4,0.4l-1.3-1.8
	c0.6-0.6,1.3-1,2.1-1.4c0.8-0.3,1.6-0.5,2.6-0.5c1.6,0,2.7,0.4,3.4,1.1C124.2,316.7,124.6,317.7,124.6,319z"/>
<path class="st0" d="M137.4,322.5c0,2.5-0.4,4.3-1.3,5.6c-0.9,1.3-2.1,2-3.7,2s-2.8-0.7-3.7-2c-0.9-1.3-1.3-3.2-1.3-5.6
	c0-1.2,0.1-2.3,0.3-3.2c0.2-0.9,0.6-1.7,1-2.4c0.4-0.6,1-1.1,1.6-1.5c0.6-0.3,1.3-0.5,2.1-0.5c1.6,0,2.8,0.7,3.7,2
	C137,318.2,137.4,320,137.4,322.5z M134.8,322.5c0-0.8,0-1.5-0.1-2.1c-0.1-0.7-0.2-1.2-0.4-1.7c-0.2-0.5-0.4-0.9-0.7-1.1
	c-0.3-0.3-0.7-0.4-1.2-0.4s-0.9,0.1-1.2,0.4c-0.3,0.3-0.6,0.7-0.8,1.1s-0.3,1.1-0.4,1.7c-0.1,0.7-0.1,1.4-0.1,2.1s0,1.5,0.1,2.1
	c0.1,0.7,0.2,1.2,0.4,1.7c0.2,0.5,0.4,0.9,0.8,1.1s0.7,0.4,1.2,0.4s0.8-0.1,1.2-0.4c0.3-0.3,0.6-0.7,0.7-1.1
	c0.2-0.5,0.3-1.1,0.4-1.7S134.8,323.2,134.8,322.5z"/>
<path class="st0" d="M140.2,318.2c0.8-0.3,1.6-0.7,2.4-1.2s1.5-1.1,2.2-1.8h1.8v14.6h-2.5v-11.2c-0.4,0.3-0.9,0.6-1.4,0.9
	c-0.6,0.3-1.1,0.5-1.7,0.7L140.2,318.2z"/>
<path class="st0" d="M158.3,325.6c0-0.5-0.1-0.9-0.3-1.2c-0.2-0.4-0.5-0.7-1-0.9c-0.5-0.3-1.1-0.4-1.8-0.6s-1.7-0.2-2.9-0.2
	c0.2-1.3,0.3-2.6,0.4-3.8c0.1-1.2,0.2-2.4,0.2-3.6h7.4v2.1h-5.3c0,0.2,0,0.5-0.1,0.8c0,0.3,0,0.6-0.1,0.9c0,0.3,0,0.6-0.1,0.9
	c0,0.3-0.1,0.5-0.1,0.7c2.1,0.1,3.6,0.6,4.6,1.4s1.5,2,1.5,3.4c0,0.7-0.1,1.3-0.3,1.8c-0.2,0.6-0.6,1-1,1.4c-0.5,0.4-1,0.7-1.7,1
	c-0.7,0.2-1.5,0.3-2.5,0.3c-0.4,0-0.8,0-1.2-0.1c-0.4-0.1-0.8-0.1-1.1-0.2c-0.4-0.1-0.7-0.2-1-0.2c-0.3-0.1-0.5-0.2-0.6-0.2l0.5-2.1
	c0.3,0.1,0.7,0.3,1.3,0.5c0.6,0.2,1.2,0.2,2,0.2c0.5,0,1-0.1,1.4-0.2s0.7-0.3,1-0.5c0.2-0.2,0.4-0.5,0.5-0.7
	C158.3,326.2,158.3,325.9,158.3,325.6z"/>
<polygon class="st0" points="520.3,251.2 495.4,251.2 495.4,393 520.3,393 520.3,407.1 562.9,407.1 562.9,393 619.5,393 
	619.5,407.1 662.1,407.1 662.1,393 687,393 687,251.2 662.1,251.2 662.1,237.1 619.5,237.1 619.5,251.2 562.9,251.2 562.9,237.1 
	520.3,237.1 "/>
<polygon class="st0" points="520.3,46.6 495.4,46.6 495.4,188.3 520.3,188.3 520.3,202.5 562.9,202.5 562.9,188.3 619.5,188.3 
	619.5,202.5 662.1,202.5 662.1,188.3 687,188.3 687,46.6 662.1,46.6 662.1,32.4 619.5,32.4 619.5,46.6 562.9,46.6 562.9,32.4 
	520.3,32.4 "/>
</svg>
